<svg clip-rule="evenodd" fill-rule="evenodd" stroke-linecap="round" stroke-linejoin="round" viewBox="0 0 1853.24 734.001" xmlns="http://www.w3.org/2000/svg"><path d="M430.829 714.596h-46.075c-7.454 0-13.552-5.76-13.552-13.213L360.7 369.372l-2.033-56.916c-.678-15.246-21.682-18.295-26.764-3.727l-1.694 5.421-78.599 211.403c-2.032 5.42-7.114 8.808-12.874 8.808h-32.862c-5.759 0-10.841-3.726-12.874-8.808l-74.533-202.595c0-.339-.339-.677-.339-.677-4.404-14.907-26.764-11.858-26.764 3.726l-.678 49.463L81.2 701.383c-.338 7.453-6.437 13.213-13.551 13.213H24.284c-7.792 0-14.229-6.437-13.551-14.229L36.48 173.892c.338-7.453 6.436-12.874 13.551-12.874h66.402c5.76 0 10.842 3.727 12.874 9.147l71.484 199.207 10.841 31.846c4.405 12.535 21.683 12.196 26.087 0l10.502-31.846 75.211-199.546c2.033-5.42 7.115-8.808 12.874-8.808h69.451c7.454 0 13.213 5.759 13.552 12.874l25.409 526.475c.339 7.792-6.098 14.229-13.89 14.229zm485.82 0h-48.108c-7.114 0-13.212-4.404-15.245-11.18l-31.507-98.248c-2.033-6.776-8.47-11.18-15.246-11.18H599.545c-7.115 0-13.213 4.404-15.246 11.18l-31.846 98.248c-2.033 6.776-8.47 11.18-15.245 11.18h-44.72c-11.18 0-18.633-10.841-15.246-21.344l173.121-521.393c2.032-6.437 8.469-11.18 15.245-11.18h79.954c7.114 0 13.212 4.404 15.245 11.18l170.749 521.393c3.726 10.503-4.066 21.344-14.907 21.344zM789.943 505.564L718.12 278.916c-4.743-14.907-26.087-14.907-30.83 0l-71.484 226.31c-3.388 10.502 4.404 21.004 15.246 21.004h143.307c10.841.339 18.633-10.163 15.584-20.666zm615.577-344.546c8.47 0 15.24 6.437 15.24 14.907 2.04 55.561-1.35 248.331-127.72 318.121-15.58 8.469-35.57 16.6-60.64 21.004-7.45 1.356-12.54 7.793-12.54 15.246v169.055c0 8.469-6.77 15.245-15.24 15.245h-45.4c-8.47 0-15.24-6.776-15.24-15.245V528.263c0-7.453-5.43-13.551-12.54-14.906-20.33-3.727-36.93-10.164-51.16-17.617-128.397-65.725-137.206-261.544-137.206-319.476 0-8.47 6.776-15.246 15.246-15.246h58.95c9.15 0 16.26 7.792 15.24 16.939-11.18 119.253 24.06 219.534 93.51 253.752 14.23 7.114 33.54 13.213 59.29 13.213 26.76-.339 46.41-7.115 60.64-14.568 68.77-35.234 102.99-134.837 90.12-252.397-1.02-9.147 6.1-17.278 15.24-17.278h54.21zM1088.75 11.613c6.1 0 12.2 1.355 17.62 3.727s10.16 5.42 14.57 9.486c4.06 4.065 7.45 8.808 9.82 14.568 2.37 5.759 3.73 11.518 3.73 17.955 0 6.098-1.36 12.197-3.73 17.617s-5.76 10.164-9.82 14.23c-4.07 4.065-8.81 7.114-14.57 9.485-5.42 2.372-11.52 3.727-17.62 3.727-12.87 0-23.37-4.404-31.84-12.874-8.47-8.47-12.88-19.31-12.88-31.846 0-6.098 1.36-12.196 3.73-17.956 2.37-5.759 5.42-10.502 9.49-14.568 4.06-4.065 8.8-7.114 14.22-9.486 5.43-2.71 11.18-4.065 17.28-4.065zm185.66 0c6.1 0 12.19 1.355 17.95 3.727s10.51 5.42 14.57 9.486c4.07 4.065 7.12 8.808 9.49 14.568 2.37 5.759 3.72 11.518 3.72 17.955 0 6.098-1.35 12.197-3.72 17.617s-5.42 10.164-9.49 14.23c-4.06 4.065-8.81 7.114-14.57 9.485-5.76 2.372-11.51 3.727-17.95 3.727-12.88 0-23.38-4.404-31.85-12.874-8.47-8.47-12.87-19.31-12.87-31.846 0-6.098 1.35-12.196 3.72-17.956 2.38-5.759 5.43-10.502 9.49-14.568 4.07-4.065 8.81-7.114 14.23-9.486 5.08-2.71 11.18-4.065 17.28-4.065zm568.14 552.9c0 26.426-5.42 49.124-16.26 69.113-10.84 19.649-25.75 36.25-45.06 49.463-19.31 13.212-42.34 23.037-69.11 29.474-27.1 6.437-56.58 9.825-89.1 9.825-14.57 0-29.47-.678-43.7-1.694-14.57-1.016-28.46-2.71-42.01-4.404s-26.09-3.727-37.95-6.098c-9.82-2.033-18.97-3.727-27.1-5.76-3.05-.677-5.08-3.388-5.08-6.437v-58.61c0-4.404 4.4-7.453 8.47-6.098 18.97 6.437 39.97 11.519 62.67 15.584 26.43 4.404 56.58 6.776 90.12 6.776 24.39 0 45.06-2.033 62-5.759 16.94-3.727 31.17-9.486 42.01-16.94 10.84-7.453 18.63-16.6 23.71-27.442 5.08-10.841 7.46-23.037 7.46-36.927 0-14.907-4.07-27.781-12.54-38.283-8.47-10.503-19.31-19.989-32.86-28.458-13.55-8.47-29.14-15.923-46.41-23.038-17.28-6.776-35.24-13.89-53.19-21.343-17.96-7.454-35.92-15.246-53.19-24.054-17.28-8.47-32.87-18.634-46.42-30.491-13.55-11.858-24.39-25.409-32.86-41.332s-12.54-34.556-12.54-56.239c0-18.972 4.07-37.605 11.86-55.9 7.79-18.294 20.33-34.556 36.93-48.785s37.94-25.748 64.03-34.556c26.09-8.809 57.26-13.213 93.51-13.213 9.48 0 19.31.339 30.15 1.355 10.84 1.017 22.02 2.033 33.2 3.727s22.02 3.388 33.2 5.421c8.81 1.693 17.28 3.387 25.41 5.081 3.05.678 5.08 3.388 5.08 6.437v54.206c0 4.404-4.06 7.454-8.13 6.098-18.97-5.081-37.94-9.147-56.92-11.857-21.68-3.388-42.68-4.743-63.01-4.743-43.36 0-74.87 7.114-95.2 21.682s-30.49 33.879-30.49 57.933c0 14.906 4.07 27.78 12.53 38.621 8.47 10.842 19.32 20.328 32.87 28.797 13.55 8.47 29.13 16.262 46.41 23.038s35.23 13.89 53.19 21.343c17.96 7.454 35.91 15.246 53.19 24.054 17.28 8.809 32.86 18.972 46.41 31.169 13.56 11.857 24.4 26.086 32.87 42.009 7.79 16.262 11.85 35.234 11.85 57.255z" fill="#6bf178"/></svg>